<?xml version="1.0" encoding="UTF-8" standalone="no"?>
<svg
   width="367.34695"
   height="273.09137"
   viewBox="0 0 275.48529 204.76867"
   version="1.1"
   id="svg270"
   xmlns="http://www.w3.org/2000/svg"
   xmlns:svg="http://www.w3.org/2000/svg">
  <defs
     id="defs134">
    <clipPath
       id="a">
      <path
         d="M 153,0 H 276 V 177 H 153 Z m 0,0"
         id="path1" />
    </clipPath>
    <clipPath
       id="w">
      <path
         d="M 82,82 H 221 V 205 H 82 Z m 0,0"
         id="path16" />
    </clipPath>
  </defs>
  <path
     d="m 60.485281,30.784294 c 0,0 -25,16 -40,35 -7,8 -8,13 -10,19 -5.9999997,19.999996 15,22.999996 37,18.999996 21,-4.999996 44,3 52.999999,4 7,1 13,1 19,4 15,6 19,15 19,28 0,8 -10,21 -20,24 -12,3 -23.999999,8 -20.999999,12 10.999999,13 69.999999,9 81.999999,-1 18,-16 40,-47 40,-47 l -69,-97.999996 -89.999999,1"
     style="fill:#00b2a8;fill-opacity:1;fill-rule:nonzero;stroke:none"
     id="path135" />
  <g
     clip-path="url(#a)"
     id="g136"
     transform="translate(-0.51471865,-0.21570613)">
    <path
       d="m 153,1 h 2 l 6,1 a 130,130 0 0 1 40,9 c 6,2 12,5 17,9 a 60,60 0 0 1 19,22 c 6,12 7,16 9,25 3,7 9,14 16,18 8,4 14,5 14,11 1,5 -3,11 -6,13 -2,1 -2,5 -2,6 l 4,6 c 2,1 -1,7 -4,8 l 4,3 c 0,5 -4,5 -5,11 -1,3 8,15 -1,26 -6,8 -14,7 -27,6 -10,-1 -22,-1 -39,1 l 4,-20 -8,-52 c 0,0 -18,-26 -18,-29 1,-3 -5,-45 -5,-45 L 153,1"
       style="fill:#00b2a8;fill-opacity:1;fill-rule:nonzero;stroke:none"
       id="path136" />
  </g>
  <path
     d="m 195.48528,98.784294 4,16.999996 c 0,18 8,-46.999996 -1,-62.999996 -8,-16 -11,-32 4,-42 -28,-15.0000001 -76,-10.00000013 -76,-10.00000013 l 28,29.00000013 18,94.999996 23,-25.999996"
     style="fill:#f4c44b;fill-opacity:1;fill-rule:nonzero;stroke:none"
     id="path137" />
  <g
     clip-path="url(#w)"
     id="g151"
     transform="translate(-0.51471865,-0.21570613)">
    <path
       d="m 153,128 c 1,11 -5,20 -12,26 -5,4 -13,8 -22,10 -11,2 -23,2 -29,5 -11,7 -9,17 -3,23 12,14 41,17 56,8 22,-14 26,-15 37,-25 18,-16 40,-47 40,-47 l -43,-46 -42,28 c 0,0 17,4 18,18"
       style="fill:#f3b149;fill-opacity:1;fill-rule:nonzero;stroke:none"
       id="path150" />
  </g>
  <path
     d="m 195.48528,98.784294 4,16.999996 c 0,18 -5,18 -6,30 -2,27 -23,22 -41,50 0,0 19,-10 30,-14 11,-5 14,-5 27,-9 9,-2 26,-18 32,-35 7,-17 1,-37 -10,-48.999996 -14,-16 -25,-20 -33,-36 -8,-16 -44,-23 -44,-23 l 18,94.999996 23,-25.999996"
     style="fill:#f3b149;fill-opacity:1;fill-rule:nonzero;stroke:none"
     id="path159" />
  <path
     d="m 162.48528,16.784294 c -9,-7.0000001 -18,-13.0000001 -27,-15.0000001 h -15 c -12,2 -24.999999,6 -29.999999,9.0000001 -22,9 -43,22 -70,55 0,0 5,-5 16,-11 12,-7 32,-15 45,-14 40.999999,4 24.999999,30 0,45 -14,9 -23,10 -47,23.999996 -14,8 -20,15 -25.9999997,23 -6,9 -12,20 -6,33 5,13 24.9999997,12 37.9999997,-11 20,-34 29,-41 57,-47 20.999999,-4 38.999999,0 54.999999,-10.999996 17,-12 39,-59 10,-80"
     style="fill:#00aee0;fill-opacity:1;fill-rule:nonzero;stroke:none"
     id="path160" />
  <path
     d="m 97.485281,107.78429 c 0,0 33.999999,-3 51.999999,8 12,7 22,17 22,38 -1,33 -29,49 -42,51 0,0 18,-5 28,-12 11,-8 25,-20 31,-29 10,-16 18,-38 20,-57 2,-22.999996 -6,-70.999996 -47,-95.999996 -18,-11.00000013 -30,-11.00000013 -40,-9.0000001 6,0 12,-1.00000003 18,1 8,3 14,9.0000001 19,15.0000001 7,10 9,22 8,29 -2,22 -24,49 -65,59.999996 l -3.999999,1"
     style="fill:#e35f3b;fill-opacity:1;fill-rule:nonzero;stroke:none"
     id="path161" />
</svg>
